HIERARCHY
ROOT Hips
{
  OFFSET 5.84602e-005 68.8428 3.50346
  CHANNELS 6 Xposition Yposition Zposition Zrotation Xrotation Yrotation
  JOINT Spine
  {
    OFFSET 0 8.597 -4.6522
    CHANNELS 3 Zrotation Xrotation Yrotation
    JOINT Spine1
    {
      OFFSET 0 7.8454 0.4098
      CHANNELS 3 Zrotation Xrotation Yrotation
      JOINT Spine2
      {
        OFFSET 0 9.7078 -2.1609
        CHANNELS 3 Zrotation Xrotation Yrotation
        JOINT Neck
        {
          OFFSET 0 21.8761 -0.4549
          CHANNELS 3 Zrotation Xrotation Yrotation
          JOINT Head
          {
            OFFSET 0 12.3537 3.3602
            CHANNELS 3 Zrotation Xrotation Yrotation
            End Site
            {
              OFFSET 0.0001 18.9506 0.5657
            }
          }
        }
        JOINT LeftShoulder
        {
          OFFSET 2.2086 21.1115 7.2329
          CHANNELS 3 Zrotation Xrotation Yrotation
          JOINT LeftArm
          {
            OFFSET 13.1193 3.0282 -4.8998
            CHANNELS 3 Zrotation Xrotation Yrotation
            JOINT LeftForeArm
            {
              OFFSET 27.4081 -0.0973053 -0.2375
              CHANNELS 3 Zrotation Xrotation Yrotation
              JOINT LeftHand
              {
                OFFSET 22.8641 0.0662994 -0.1369
                CHANNELS 3 Zrotation Xrotation Yrotation
                JOINT LeftHandIndex1
                {
                  OFFSET 8.8614 0.775009 2.4612
                  CHANNELS 3 Zrotation Xrotation Yrotation
                  JOINT LeftHandIndex2
                  {
                    OFFSET 3.3146 -0.808304 0.5841
                    CHANNELS 3 Zrotation Xrotation Yrotation
                    JOINT LeftHandIndex3
                    {
                      OFFSET 2.2628 -0.552002 0.3989
                      CHANNELS 3 Zrotation Xrotation Yrotation
                      End Site
                      {
                        OFFSET 1.6102 -0.4807 0.2612
                      }
                    }
                  }
                }
                JOINT LeftHandMiddle1
                {
                  OFFSET 8.9937 0.895004 0.2143
                  CHANNELS 3 Zrotation Xrotation Yrotation
                  JOINT LeftHandMiddle2
                  {
                    OFFSET 4.0984 0.0113983 -0.0242
                    CHANNELS 3 Zrotation Xrotation Yrotation
                    JOINT LeftHandMiddle3
                    {
                      OFFSET 2.2716 0.00689697 -0.0138001
                      CHANNELS 3 Zrotation Xrotation Yrotation
                      End Site
                      {
                        OFFSET 2.0404 -0.1441 0.0027
                      }
                    }
                  }
                }
                JOINT LeftHandRing1
                {
                  OFFSET 8.5234 0.597198 -2.0164
                  CHANNELS 3 Zrotation Xrotation Yrotation
                  JOINT LeftHandRing2
                  {
                    OFFSET 3.7188 -0.188293 -0.2328
                    CHANNELS 3 Zrotation Xrotation Yrotation
                    JOINT LeftHandRing3
                    {
                      OFFSET 2.1191 -0.106598 -0.1332
                      CHANNELS 3 Zrotation Xrotation Yrotation
                      End Site
                      {
                        OFFSET 1.8737 -0.2304 -0.0886
                      }
                    }
                  }
                }
                JOINT LeftHandPinky1
                {
                  OFFSET 7.9094 -0.601089 -3.4825
                  CHANNELS 3 Zrotation Xrotation Yrotation
                  JOINT LeftHandPinky2
                  {
                    OFFSET 2.2874 -0.477005 -0.6314
                    CHANNELS 3 Zrotation Xrotation Yrotation
                    JOINT LeftHandPinky3
                    {
                      OFFSET 1.6774 -0.349396 -0.4633
                      CHANNELS 3 Zrotation Xrotation Yrotation
                      End Site
                      {
                        OFFSET 1.4888 -0.4091 -0.3416
                      }
                    }
                  }
                }
                JOINT LeftHandThumb1
                {
                  OFFSET 1.833 -1.3875 1.3896
                  CHANNELS 3 Zrotation Xrotation Yrotation
                  JOINT LeftHandThumb2
                  {
                    OFFSET 3.4129 -1.121 2.5732
                    CHANNELS 3 Zrotation Xrotation Yrotation
                    JOINT LeftHandThumb3
                    {
                      OFFSET 2.2474 -0.804199 1.6192
                      CHANNELS 3 Zrotation Xrotation Yrotation
                      End Site
                      {
                        OFFSET 1.6527 -0.5689 1.1317
                      }
                    }
                  }
                }
              }
            }
          }
        }
        JOINT RightShoulder
        {
          OFFSET -2.2086 21.1115 7.2329
          CHANNELS 3 Zrotation Xrotation Yrotation
          JOINT RightArm
          {
            OFFSET -13.1216 3.0287 -4.9007
            CHANNELS 3 Zrotation Xrotation Yrotation
            JOINT RightForeArm
            {
              OFFSET -27.4081 -0.0973053 -0.2375
              CHANNELS 3 Zrotation Xrotation Yrotation
              JOINT RightHand
              {
                OFFSET -22.8641 0.0664063 -0.1369
                CHANNELS 3 Zrotation Xrotation Yrotation
                JOINT RightHandIndex1
                {
                  OFFSET -8.8614 0.774994 2.4612
                  CHANNELS 3 Zrotation Xrotation Yrotation
                  JOINT RightHandIndex2
                  {
                    OFFSET -3.3146 -0.808304 0.5841
                    CHANNELS 3 Zrotation Xrotation Yrotation
                    JOINT RightHandIndex3
                    {
                      OFFSET -2.2628 -0.552002 0.3989
                      CHANNELS 3 Zrotation Xrotation Yrotation
                      End Site
                      {
                        OFFSET -1.6102 -0.4807 0.2612
                      }
                    }
                  }
                }
                JOINT RightHandMiddle1
                {
                  OFFSET -8.9937 0.894989 0.2143
                  CHANNELS 3 Zrotation Xrotation Yrotation
                  JOINT RightHandMiddle2
                  {
                    OFFSET -4.0984 0.0113983 -0.0242
                    CHANNELS 3 Zrotation Xrotation Yrotation
                    JOINT RightHandMiddle3
                    {
                      OFFSET -2.2716 0.00691223 -0.0138001
                      CHANNELS 3 Zrotation Xrotation Yrotation
                      End Site
                      {
                        OFFSET -2.0404 -0.1441 0.0027
                      }
                    }
                  }
                }
                JOINT RightHandRing1
                {
                  OFFSET -8.5234 0.597198 -2.0164
                  CHANNELS 3 Zrotation Xrotation Yrotation
                  JOINT RightHandRing2
                  {
                    OFFSET -3.7188 -0.188309 -0.2328
                    CHANNELS 3 Zrotation Xrotation Yrotation
                    JOINT RightHandRing3
                    {
                      OFFSET -2.1191 -0.106598 -0.1332
                      CHANNELS 3 Zrotation Xrotation Yrotation
                      End Site
                      {
                        OFFSET -1.8737 -0.2304 -0.0886
                      }
                    }
                  }
                }
                JOINT RightHandPinky1
                {
                  OFFSET -7.9094 -0.601105 -3.4825
                  CHANNELS 3 Zrotation Xrotation Yrotation
                  JOINT RightHandPinky2
                  {
                    OFFSET -2.2874 -0.477005 -0.6314
                    CHANNELS 3 Zrotation Xrotation Yrotation
                    JOINT RightHandPinky3
                    {
                      OFFSET -1.6774 -0.349396 -0.4633
                      CHANNELS 3 Zrotation Xrotation Yrotation
                      End Site
                      {
                        OFFSET -1.4888 -0.4091 -0.3416
                      }
                    }
                  }
                }
                JOINT RightHandThumb1
                {
                  OFFSET -1.833 -1.38751 1.3896
                  CHANNELS 3 Zrotation Xrotation Yrotation
                  JOINT RightHandThumb2
                  {
                    OFFSET -3.41299 -1.12099 2.5732
                    CHANNELS 3 Zrotation Xrotation Yrotation
                    JOINT RightHandThumb3
                    {
                      OFFSET -2.24741 -0.804108 1.6192
                      CHANNELS 3 Zrotation Xrotation Yrotation
                      End Site
                      {
                        OFFSET -1.6527 -0.5689 1.1317
                      }
                    }
                  }
                }
              }
            }
          }
        }
      }
    }
  }
  JOINT RightUpLeg
  {
    OFFSET -9.1966 3.8861 -0.7581
    CHANNELS 3 Zrotation Xrotation Yrotation
    JOINT RightLeg
    {
      OFFSET -0.7359 -41.0265 0
      CHANNELS 3 Zrotation Xrotation Yrotation
      JOINT RightFoot
      {
        OFFSET 0 -40.2855 0
        CHANNELS 3 Zrotation Xrotation Yrotation
        JOINT RightToeBase
        {
          OFFSET 0 -5.6122 11.7359
          CHANNELS 3 Zrotation Xrotation Yrotation
          End Site
          {
            OFFSET 0 0 7.8731
          }
        }
      }
    }
  }
  JOINT LeftUpLeg
  {
    OFFSET 9.1965 3.8864 -0.7581
    CHANNELS 3 Zrotation Xrotation Yrotation
    JOINT LeftLeg
    {
      OFFSET 0.7359 -41.0268 0
      CHANNELS 3 Zrotation Xrotation Yrotation
      JOINT LeftFoot
      {
        OFFSET 0 -40.2855 0
        CHANNELS 3 Zrotation Xrotation Yrotation
        JOINT LeftToeBase
        {
          OFFSET 0 -5.6122 11.7359
          CHANNELS 3 Zrotation Xrotation Yrotation
          End Site
          {
            OFFSET 0 0 7.8731
          }
        }
      }
    }
  }
}
MOTION
Frames:	7
Frame Time:	0.0333333
5.84602e-005 68.8428 3.50346 0 0 -0 0 0 -0 0 0 -0 0 0 -0 0 0 -0 0 0 -0 0 0 -0 0 0 -0 0 0 -0 0 0 -0 0 0 -0 0 0 -0 0 0 -0 0 0 -0 -0.0146107 -8.87603e-005 -2.63497e-007 2.99804e-018 -2.42657e-020 -1.42182e-022 0 0 -0 -0.0187562 -0.001176 5.858e-005 5.06224e-018 3.88251e-019 1.21329e-020 0 0 -0 -0.012269 -0.00324817 0.000675346 -1.74678e-018 3.88251e-019 -0 0 0 -0 0 0 -0 0 0 -0 0 0 -0 0 0 -0 0 0 -0 0 0 -0 0 0 -0 0 0 -0 0 0 -0 0 0 -0 0.0149955 -9.10982e-005 2.64101e-007 -9.69331e-018 1.21329e-020 -4.7394e-023 0 0 -0 0.0189956 -0.00119102 -5.96516e-005 -5.41541e-019 0 2.42657e-020 0 0 -0 0.0122698 -0.00324857 -0.000673756 -2.00796e-019 0 -1.94126e-019 0 0 -0 0 0 -0 0 0 -0 3.39842 1.33031 -0.0637918 -5.65207e-008 0.834868 -0.000436188 -3.39935 -2.16518 -0.0642563 -8.89002e-024 -1.18485e-023 -1.48106e-024 -3.39844 1.35642 0.0640283 -3.18788e-007 0.782166 -0.000588827 3.39931 -2.13858 0.0634662 1.1399e-023 0 -0 
-7.60759 64.9595 -57.641 0 0 -52.0007 1.38687 -0.281159 0.0321627 2.77398 -0.561411 0.0711391 2.77398 -0.561413 0.0711291 -0.738866 1.00083 0.721654 -3.98693e-007 -1.16018e-007 0.736144 -32.3421 -1.49762 2.24424 -29.8437 -6.51075 5.49001 -3.67335e-006 -6.52988e-006 -8.00266 -7.00032 -1.94416e-006 1.75479e-006 -1.59028e-015 -9.54166e-015 3.18055e-015 -0 -6.36111e-015 -0 -0 -6.36111e-015 -0 -1.59028e-015 -9.54166e-015 3.18055e-015 -0.0145939 -8.74894e-005 -1.93076e-006 7.95139e-015 0 3.18055e-015 -1.59028e-015 -9.54166e-015 3.18055e-015 -0.0187354 -0.00117478 6.02189e-005 -1.43116e-006 1.44787e-006 -2.1227e-006 -1.59028e-015 -9.54166e-015 3.18055e-015 -0.0122473 -0.00324472 0.000680058 1.59028e-015 3.18055e-015 3.18055e-015 -1.59028e-015 -9.54166e-015 3.18055e-015 -0 -6.36111e-015 -0 -0 -6.36111e-015 -0 32.3387 -1.49851 -2.24764 29.8399 -6.51147 -5.49361 -3.62336e-006 -6.65152e-006 7.99916 6.99723 -9.00147 -0.00205635 -1.59028e-015 3.18055e-015 5.1684e-015 -1.59028e-015 3.18055e-015 3.57812e-015 -3.18055e-015 -3.18055e-015 3.97569e-016 -1.59028e-015 3.18055e-015 5.1684e-015 0.0149819 -9.38315e-005 -1.91498e-006 1.29359e-006 -2.40624e-006 -1.18783e-006 -1.59028e-015 3.18055e-015 5.1684e-015 0.0188803 -0.00118181 -5.76367e-005 -0 0 2.38542e-015 -1.59028e-015 3.18055e-015 5.1684e-015 0.0122669 -0.00325081 -0.000672197 1.29389e-006 -2.40584e-006 -1.18785e-006 -1.59028e-015 3.18055e-015 5.1684e-015 -1.59028e-015 3.18055e-015 3.57812e-015 -3.18055e-015 -3.18055e-015 3.97569e-016 -10.1901 -6.60549 -13.8847 2.23369 9.71381 -0.507266 -11.3005 -9.11567 -6.02169 4.31887e-007 -3.72085e-007 9.5665e-006 6.50267 -4.4564 0.81972 -0.403491 17.755 -0.263711 -3.90451 -17.176 36.8263 -1.38602e-007 -3.93971e-009 -8.42806e-007 
-7.6086 64.9595 -57.6411 0 0 -52.0007 1.38436 -0.319789 0.0331403 2.76901 -0.638642 0.074011 2.76901 -0.638643 0.074008 -1.36086 2.06359 1.5635 -1.22241e-006 -4.85339e-007 1.47147 -32.2005 -1.49812 2.27385 -29.7943 -6.51042 5.49724 -0.451316 0.0626004 -7.99323 -7.00028 2.75355e-007 3.85912e-005 6.15487e-007 -1.31853e-006 -8.57475e-007 -7.28489e-007 4.352e-006 -9.22101e-007 6.15487e-007 -1.31853e-006 -8.57475e-007 6.15487e-007 -1.31853e-006 -8.57475e-007 -0.0145958 -8.78478e-005 -2.04599e-006 6.15454e-007 -1.31842e-006 -8.57643e-007 6.15487e-007 -1.31853e-006 -8.57475e-007 -0.0187876 -0.00117894 6.07275e-005 2.06832e-006 -2.6005e-006 2.10173e-006 6.15487e-007 -1.31853e-006 -8.57475e-007 -0.0122358 -0.00323911 0.00067145 6.15428e-007 -1.31844e-006 -8.57631e-007 6.15487e-007 -1.31853e-006 -8.57475e-007 -7.28489e-007 4.352e-006 -9.22101e-007 6.15487e-007 -1.31853e-006 -8.57475e-007 32.563 -1.51249 -1.4475 29.9194 -6.52936 -5.19199 0.209214 -0.0491952 8.86452 6.30173 -9.14888 -0.325728 -3.18055e-015 6.36111e-015 1.43125e-014 -7.95139e-015 -3.18055e-015 1.15295e-014 -4.77083e-015 -3.18055e-015 1.11319e-014 -3.18055e-015 6.36111e-015 1.43125e-014 0.0150711 -8.72403e-005 2.04759e-006 -1.59028e-015 2.22639e-014 -3.97569e-016 -3.18055e-015 6.36111e-015 1.43125e-014 0.0190471 -0.00120327 -6.628e-005 7.95139e-015 1.27222e-014 1.19271e-015 -3.18055e-015 6.36111e-015 1.43125e-014 0.0122913 -0.00325043 -0.000675679 3.18055e-015 0 3.18055e-015 -3.18055e-015 6.36111e-015 1.43125e-014 -7.95139e-015 -3.18055e-015 1.15295e-014 -4.77083e-015 -3.18055e-015 1.11319e-014 -10.1007 -6.38802 -13.863 2.28956 9.48378 -0.510367 -11.3004 -9.09381 -6.0195 -3.2865e-008 1.94787e-007 1.67434e-006 6.50313 -4.45548 0.819712 -0.40349 17.7543 -0.263774 -3.90498 -17.1762 36.8262 3.97569e-016 7.95139e-016 1.59028e-015 
-7.60961 64.9595 -57.6411 0 0 -52.0007 1.38193 -0.358429 0.0341595 2.76417 -0.715896 0.0768759 2.76417 -0.715894 0.0769023 -2.00063 3.11958 2.41991 7.44288e-007 -1.01011e-007 2.20731 -32.0587 -1.49857 2.30346 -29.745 -6.5101 5.50448 -0.90277 0.125142 -7.9833 -7.00021 -3.18604e-006 8.35576e-005 -6.1595e-007 1.31564e-006 8.6176e-007 9.00759e-007 -1.13547e-007 3.01757e-006 -1.63152e-006 4.46835e-006 -3.92533e-006 -6.1595e-007 1.31564e-006 8.6176e-007 -0.0145926 -8.88494e-005 5.41851e-007 -1.14626e-007 3.03939e-006 -1.76913e-006 -6.1595e-007 1.31564e-006 8.6176e-007 -0.0187956 -0.00117459 5.82319e-005 -1.63385e-006 4.46885e-006 -3.92457e-006 -6.1595e-007 1.31564e-006 8.6176e-007 -0.0122364 -0.00323619 0.000669821 -1.14687e-007 3.03939e-006 -1.7692e-006 -6.1595e-007 1.31564e-006 8.6176e-007 9.00759e-007 -1.13547e-007 3.01757e-006 -1.63152e-006 4.46835e-006 -3.92533e-006 32.7878 -1.52336 -0.646625 29.999 -6.54684 -4.89027 0.419342 -0.0952674 9.7309 5.60362 -9.29269 -0.652027 -1.39355e-006 -1.63332e-006 -2.31547e-006 3.70902e-006 2.93399e-006 9.21925e-007 -3.78743e-007 1.98282e-006 -5.34234e-006 -1.39355e-006 -1.63332e-006 -2.31547e-006 0.014953 -9.74277e-005 3.14614e-006 -3.78948e-007 1.98212e-006 -5.3426e-006 -1.39355e-006 -1.63332e-006 -2.31547e-006 0.0189487 -0.00119123 -5.59008e-005 -3.79054e-007 1.98195e-006 -5.34267e-006 -1.39355e-006 -1.63332e-006 -2.31547e-006 0.012331 -0.00325881 -0.000679482 -3.79072e-007 1.98229e-006 -5.34254e-006 -1.39355e-006 -1.63332e-006 -2.31547e-006 3.70902e-006 2.93399e-006 9.21925e-007 -3.78743e-007 1.98282e-006 -5.34234e-006 -10.0114 -6.17053 -13.8417 2.34538 9.25381 -0.513224 -11.3004 -9.072 -6.01735 1.92169e-006 2.01363e-007 -1.35186e-007 6.50358 -4.45458 0.819697 -0.403486 17.7536 -0.263816 -3.90547 -17.1764 36.8261 -4.01661e-007 3.93843e-007 -8.30174e-007 
-7.61063 64.9595 -57.6411 0 0 -52.0007 1.37958 -0.397101 0.0351136 2.75952 -0.793177 0.0797706 2.75952 -0.793176 0.0797667 -2.65839 4.16811 3.29117 -1.77496e-006 -1.3991e-006 2.94355 -31.9168 -1.49897 2.33306 -29.6956 -6.50975 5.5117 -1.35433 0.187614 -7.97289 -7.00014 5.96675e-006 0.000134696 1.59028e-015 9.54166e-015 6.36111e-015 1.11621e-006 4.19322e-007 -3.49151e-006 -1.11319e-014 6.36111e-015 -0 1.59028e-015 9.54166e-015 6.36111e-015 -0.0146087 -8.89358e-005 -1.31443e-006 -3.18055e-015 -9.54166e-015 -0 1.59028e-015 9.54166e-015 6.36111e-015 -0.0187476 -0.00117276 5.52861e-005 1.59028e-015 -1.90833e-014 -0 1.59028e-015 9.54166e-015 6.36111e-015 -0.0122927 -0.0032523 0.000680805 6.36111e-015 0 -0 1.59028e-015 9.54166e-015 6.36111e-015 1.11621e-006 4.19322e-007 -3.49151e-006 -1.11319e-014 6.36111e-015 -0 33.0129 -1.53111 0.154893 30.0787 -6.5639 -4.58852 0.630343 -0.138197 10.5982 4.90301 -9.43285 -0.980897 -2.38542e-015 3.18055e-015 3.18055e-015 -1.59028e-015 -3.18055e-015 2.38542e-015 7.95139e-016 0 -1.59028e-015 -2.38542e-015 3.18055e-015 3.18055e-015 0.0148898 -8.76994e-005 1.2329e-006 -2.38542e-015 3.18055e-015 2.38542e-015 -2.38542e-015 3.18055e-015 3.18055e-015 0.0190812 -0.00119166 -6.05354e-005 1.59028e-015 -3.18055e-015 -0 -2.38542e-015 3.18055e-015 3.18055e-015 0.0123199 -0.0032619 -0.00068027 -4.77083e-015 6.36111e-015 3.97569e-016 -2.38542e-015 3.18055e-015 3.18055e-015 -1.59028e-015 -3.18055e-015 2.38542e-015 7.95139e-016 0 -1.59028e-015 -9.92218 -5.95266 -13.8206 2.40113 9.02307 -0.515913 -11.3003 -9.04982 -6.0151 -4.36079e-006 -9.21297e-007 5.888e-006 6.50403 -4.45353 0.819682 -0.403485 17.7526 -0.263842 -3.90595 -17.1764 36.826 -3.50327e-007 -2.96068e-008 -8.34621e-007 
-7.61165 64.9595 -57.6412 0 0 -52.0007 1.37733 -0.435774 0.0361003 2.7551 -0.870494 0.0826571 2.7551 -0.870494 0.0826701 -3.33453 5.20882 4.17758 -1.8937e-007 1.06015e-006 3.68016 -31.775 -1.49928 2.36266 -29.6462 -6.50941 5.51894 -1.806 0.250021 -7.96196 -7.00009 -1.65398e-005 0.000178088 -4.9844e-007 -1.74057e-006 2.61965e-006 3.48115e-006 -9.9688e-007 2.4676e-006 -4.9844e-007 -1.74057e-006 2.61965e-006 -4.9844e-007 -1.74057e-006 2.61965e-006 -0.0145964 -8.9957e-005 3.67696e-006 -4.98595e-007 -1.74091e-006 2.61943e-006 -4.9844e-007 -1.74057e-006 2.61965e-006 -0.0187518 -0.00117394 5.59036e-005 -4.98616e-007 -1.74102e-006 2.61937e-006 -4.9844e-007 -1.74057e-006 2.61965e-006 -0.0122458 -0.00324613 0.000675622 -4.98508e-007 -1.74089e-006 2.61949e-006 -4.9844e-007 -1.74057e-006 2.61965e-006 3.48115e-006 -9.9688e-007 2.4676e-006 -4.9844e-007 -1.74057e-006 2.61965e-006 33.2382 -1.5357 0.956923 30.1584 -6.58054 -4.28669 0.842095 -0.17794 11.4663 4.19991 -9.56929 -1.31222 3.57182e-006 -1.12802e-006 1.72436e-007 3.38257e-006 -2.62054e-006 1.07555e-006 3.57182e-006 -1.12802e-006 1.72435e-007 3.57182e-006 -1.12802e-006 1.72436e-007 0.0149361 -8.80619e-005 2.46522e-006 1.0815e-006 -1.35352e-007 -2.66306e-007 3.57182e-006 -1.12802e-006 1.72436e-007 0.0190289 -0.00119489 -5.24623e-005 3.57132e-006 -1.12795e-006 1.72587e-007 3.57182e-006 -1.12802e-006 1.72436e-007 0.0121812 -0.00322634 -0.000670625 3.57151e-006 -1.12789e-006 1.72473e-007 3.57182e-006 -1.12802e-006 1.72436e-007 3.38257e-006 -2.62054e-006 1.07555e-006 3.57182e-006 -1.12802e-006 1.72435e-007 -9.83287 -5.73419 -13.7998 2.4568 8.7912 -0.518205 -11.3003 -9.02708 -6.01286 6.08903e-008 -8.58875e-008 -1.74149e-008 6.50449 -4.45252 0.819673 -0.403476 17.7517 -0.263887 -3.90644 -17.1765 36.826 3.97569e-016 1.59028e-015 1.59028e-015 
-7.61266 64.9594 -57.6412 0 0 -52.0007 1.37522 -0.474473 0.0370927 2.75093 -0.947862 0.0855452 2.75094 -0.947861 0.0855671 -4.02931 6.2408 5.07945 7.66612e-007 1.86856e-007 4.41708 -31.6333 -1.49948 2.39231 -29.5969 -6.50907 5.52618 -2.25774 0.312337 -7.95056 -7.00002 -1.15948e-005 0.000224283 4.1155e-006 -2.30108e-006 1.59502e-006 2.38209e-007 -1.78344e-006 6.36602e-006 -1.84977e-006 -4.07769e-007 -2.63902e-007 4.1155e-006 -2.30108e-006 1.59502e-006 -0.0146379 -9.04364e-005 -2.76239e-006 -4.97245e-007 -1.74939e-006 2.61357e-006 4.1155e-006 -2.30108e-006 1.59502e-006 -0.0187652 -0.00118025 6.19271e-005 -4.97265e-007 -1.7495e-006 2.61351e-006 4.1155e-006 -2.30108e-006 1.59502e-006 -0.0123307 -0.00326491 0.00068133 -4.97158e-007 -1.74937e-006 2.61363e-006 4.1155e-006 -2.30108e-006 1.59502e-006 2.38209e-007 -1.78344e-006 6.36602e-006 -1.84977e-006 -4.07769e-007 -2.63902e-007 33.4636 -1.53711 1.75938 30.2383 -6.59675 -3.98483 1.05458 -0.214502 12.335 3.49444 -9.70196 -1.64599 -4.6346e-031 -3.18055e-015 -8.34896e-015 -1.10348e-031 -3.18055e-015 -1.98785e-015 2.38542e-015 -3.18055e-015 -1.19271e-015 -4.6346e-031 -3.18055e-015 -8.34896e-015 0.0149679 -8.60933e-005 2.13376e-006 -3.31043e-031 3.18055e-015 5.96354e-015 -4.6346e-031 -3.18055e-015 -8.34896e-015 0.0189548 -0.00119363 -6.41229e-005 -2.44723e-006 1.04731e-006 -2.74856e-007 -4.6346e-031 -3.18055e-015 -8.34896e-015 0.0122183 -0.00323404 -0.000673196 2.44795e-006 -1.04709e-006 2.74815e-007 -4.6346e-031 -3.18055e-015 -8.34896e-015 -1.10348e-031 -3.18055e-015 -1.98785e-015 2.38542e-015 -3.18055e-015 -1.19271e-015 -9.74362 -5.51569 -13.7793 2.51242 8.5593 -0.52039 -11.3002 -9.00434 -6.01059 1.73979e-006 4.58916e-007 -8.20247e-008 6.50495 -4.45153 0.819675 -0.403477 17.7508 -0.263916 -3.90692 -17.1766 36.8259 5.45283e-008 4.36283e-007 3.54376e-010 
